<svg width="58" height="41" viewBox="0 0 58 41" fill="none" xmlns="http://www.w3.org/2000/svg">
<path fill-rule="evenodd" clip-rule="evenodd" d="M37.0467 3.05136C35.8031 4.27838 34.7856 5.39081 34.7856 5.52354C34.7856 5.65647 34.2015 6.0383 33.4874 6.37251C32.1083 7.01781 31.8777 7.29941 32.0774 8.09477C32.1693 8.46046 32.3353 8.59259 32.703 8.59259C32.9784 8.59259 33.2566 8.45468 33.3214 8.28629C33.435 7.98974 34.3886 7.50408 35.3115 7.2725C35.6855 7.17864 35.8127 7.28386 36.0704 7.90046C36.4484 8.80523 36.448 8.79188 36.0847 8.79188C35.6563 8.79188 35.4641 9.75505 35.8213 10.1124C36.0489 10.34 36.2324 10.3567 36.6718 10.1895C36.9801 10.0723 37.2787 10.0227 37.3353 10.0793C37.3919 10.1359 38.0597 12.672 38.8194 15.7148C40.4105 22.0879 40.5665 23.5686 39.8188 25.1994C39.5763 25.7287 39.0992 26.5133 38.7588 26.9431L38.14 27.7244H36.3773C35.0199 27.7244 34.5406 27.7985 34.2927 28.0464C34.0115 28.3276 34.0063 28.4227 34.2517 28.7937C34.4798 29.1393 34.7901 29.2378 35.9046 29.3187C38.3969 29.4996 36.5014 29.7119 32.3941 29.7117C29.7121 29.7115 28.3535 29.6351 28.0097 29.4652C27.7357 29.3298 27.2925 28.777 27.0246 28.2365C26.6289 27.4376 26.5384 26.9539 26.5406 25.6458C26.544 23.617 26.8979 22.6941 28.7788 19.8096C30.1728 17.6716 30.2019 17.6005 30.2019 16.3346C30.2019 13.8959 29.5225 12.5664 27.8104 11.6545C27.1783 11.3179 26.4997 11.2772 20.5778 11.2208C12.8209 11.1469 12.1674 11.2308 10.9408 12.4564C10.0081 13.3885 9.56871 14.6227 9.75484 15.7869L9.87222 16.5211L7.63141 16.6008C5.84976 16.6642 5.18613 16.7728 4.39396 17.1307C2.49911 17.9869 1.17384 19.8098 0.963394 21.8491C0.87491 22.7067 0.951236 23.103 1.38848 24.0582C1.68163 24.6986 2.05829 25.3737 2.22549 25.5585C2.49254 25.8534 2.49473 25.9636 2.24342 26.4607C2.08598 26.7722 1.76015 27.6267 1.51921 28.3597C1.17444 29.4092 0.988896 29.7059 0.647115 29.7547C0.408366 29.789 0.182174 29.9781 0.144707 30.1752C0.0193545 30.8327 0.486292 31.1123 1.70933 31.1123C2.85704 31.1123 2.86481 31.1163 3.54638 32.0651C4.08805 32.819 4.25406 33.2714 4.34095 34.2302C4.56176 36.6659 6.07356 38.7722 8.33311 39.7925C9.37399 40.2626 9.83714 40.3523 11.1891 40.3463C12.5845 40.34 12.9957 40.2501 14.2289 39.6817C16.5287 38.6217 18.0666 36.6513 18.3803 34.3633L18.498 33.5037H28.9986H39.499L39.9565 33.9908C40.6572 34.7366 41.6664 35.1339 42.6983 35.0706L43.6147 35.0142L43.858 35.8384C44.9332 39.4802 49.2452 41.4899 52.9701 40.0855C54.4743 39.5181 56.1233 38.0069 56.8481 36.531C57.3262 35.5574 57.4045 35.1573 57.4023 33.703C57.3999 32.2686 57.3168 31.8399 56.859 30.904L56.3184 29.7988L56.7341 28.959C57.2518 27.9123 57.1305 27.0902 56.3114 26.0966C55.0971 24.6234 52.1797 23.1473 50.4619 23.1369C50.0539 23.1345 49.235 22.7635 48.1381 22.0845C46.5331 21.0908 46.4246 20.9788 46.0667 19.9459C45.7819 19.1238 42.3422 9.66357 41.8213 8.26935C41.7752 8.14639 42.2322 7.76674 42.8365 7.42555C43.4409 7.08457 44.029 6.63059 44.1434 6.41675C44.2578 6.20292 44.3514 5.20806 44.3514 4.20604C44.3514 2.47182 44.3243 2.35683 43.7877 1.82015C43.1069 1.13937 42.0604 0.822903 40.4844 0.821508L39.308 0.820312L37.0467 3.05136ZM42.6527 2.80922C42.9132 3.02545 42.9598 3.32319 42.8795 4.25925C42.7585 5.66862 42.5919 5.89661 41.2001 6.55546C40.6112 6.83426 40.0857 7.17585 40.0326 7.31435C39.9794 7.45286 40.5819 9.29927 41.3711 11.4175C42.1605 13.5358 43.2936 16.6588 43.8889 18.3578C44.4844 20.0567 45.0966 21.6385 45.2494 21.873C45.4023 22.1074 45.9868 22.5644 46.5484 22.8886L47.5694 23.4781L46.5085 24C45.3228 24.5834 44.0041 25.6243 42.9074 26.8423C42.136 27.6991 40.0665 30.8835 39.8617 31.5292C39.7451 31.8961 39.4194 31.9094 30.5845 31.9094H21.4282L21.9089 31.1479C22.7551 29.8075 23.1068 28.5381 23.1062 26.8276C23.1054 24.9359 22.5667 23.671 21.2584 22.489C18.2695 19.7887 12.7954 19.6304 8.89769 22.1317C6.93908 23.3884 4.74212 26.2484 3.79749 28.7706C3.5428 29.4508 3.33473 29.7173 3.05812 29.7173C2.59637 29.7173 2.60912 29.6668 3.80386 26.7759C5.63035 22.3561 7.65513 20.0344 10.946 18.5862C11.8876 18.1718 12.1694 18.1585 19.9881 18.1585H28.0584L27.7415 18.6069C27.0298 19.6137 25.8522 21.7407 25.4979 22.6594C25.2131 23.3976 25.12 24.1547 25.12 25.7315C25.12 27.658 25.1675 27.9189 25.7179 29.0197C26.7506 31.0852 26.8393 31.1131 32.3738 31.1079C36.51 31.1041 37.1736 31.0595 37.8745 30.7374C38.8469 30.291 39.4587 29.6399 39.2983 29.2222C39.2269 29.0363 39.4619 28.541 39.8834 27.989C40.8772 26.6869 41.3294 25.7259 41.6812 24.168C41.9819 22.8366 41.9767 22.7684 41.3673 20.038C40.0313 14.0517 38.582 8.69563 38.2259 8.42898C38.0326 8.28429 37.8939 8.09198 37.9174 8.0017C37.9409 7.91162 37.699 7.31256 37.3797 6.67065L36.7994 5.50361L38.4005 3.9364L40.0014 2.36919L41.1632 2.45329C41.8021 2.49952 42.4725 2.65975 42.6527 2.80922ZM27.3523 13.1683C28.1419 13.6496 28.5339 14.3871 28.6542 15.6175L28.7469 16.5642H20.0083H11.2694V15.5578C11.2694 14.298 11.658 13.5282 12.5046 13.1111C13.0728 12.8311 14.0876 12.7862 19.9385 12.783C26.3118 12.7795 26.7522 12.8022 27.3523 13.1683ZM8.24701 18.3723C6.64791 19.2671 4.84315 21.2656 3.78473 23.3131L3.2321 24.3823L2.87478 23.7117C2.48337 22.9771 2.39508 21.6508 2.68664 20.884C2.9517 20.1868 4.0472 18.9919 4.77221 18.6089C5.31707 18.3211 8.21951 17.9379 8.47779 18.1194C8.5316 18.1573 8.42777 18.2711 8.24701 18.3723ZM18.6431 22.5678C21.253 23.791 22.1781 25.9961 21.314 28.9336C21.0757 29.7442 20.7504 30.2541 20.0194 30.9628L19.0431 31.9094H12.1977C5.56737 31.9094 5.34098 31.8967 4.98564 31.5041C4.62892 31.1099 4.63072 31.0617 5.05281 29.7513C6.17521 26.2664 8.5874 23.6057 11.6933 22.4271C12.8133 22.002 13.2342 21.9515 15.2552 21.9996C17.2332 22.0466 17.6971 22.1243 18.6431 22.5678ZM52.7455 25.3676C54.1533 26.0178 55.5116 27.2206 55.5116 27.8162C55.5116 28.0606 55.3357 28.4197 55.1204 28.6144C54.7462 28.9532 54.6734 28.9532 53.4297 28.6166C50.5238 27.83 48.1698 28.6742 45.2345 31.5559C44.199 32.5725 43.1274 33.479 42.8532 33.5709C42.2414 33.7754 41.0486 33.1446 41.0911 32.6388C41.1375 32.0826 42.7815 29.3667 43.8712 28.0456C46.3603 25.0278 49.7783 23.9965 52.7455 25.3676ZM54.0022 30.3454C54.8197 30.5846 55.0521 30.7637 55.3907 31.4164C55.9417 32.4782 56.0573 34.4562 55.6332 35.5668C55.4546 36.0343 54.9365 36.804 54.4817 37.2773C51.4059 40.4783 46.106 39.0444 45.1372 34.7491C44.9971 34.1275 45.0759 34.0064 46.7248 32.3048C47.6792 31.3201 48.5539 30.5144 48.669 30.5144C48.784 30.5144 48.4427 30.9501 47.9102 31.4824C46.9791 32.4134 46.9422 32.4936 46.9422 33.5849C46.9422 35.7754 48.4173 37.2902 50.5503 37.2902C52.1002 37.2902 53.7689 35.9927 54.0335 34.5813C54.5108 32.0372 52.8631 30.1704 50.3034 30.3556C49.6605 30.4022 49.1344 30.4146 49.1344 30.3833C49.1344 30.3522 49.4258 30.239 49.7821 30.1322C50.6324 29.8769 52.7692 29.9849 54.0022 30.3454ZM51.9458 32.2692C53.6656 33.8059 51.7367 36.5814 49.6402 35.5865C48.1796 34.8934 48.0495 32.92 49.4096 32.0908C50.3134 31.5396 51.199 31.6019 51.9458 32.2692ZM7.48294 33.925C7.48294 34.6034 8.29086 35.8486 9.0908 36.4028C11.2637 37.9086 14.4704 36.6804 14.9768 34.1483C15.1004 33.5305 15.1448 33.5037 16.0516 33.5037H16.9974L16.8254 34.4243C16.3318 37.0668 13.6011 39.0623 10.7878 38.8365C8.20297 38.6291 6.39123 36.9855 5.91054 34.4121L5.74075 33.5037H6.61185C7.36576 33.5037 7.48294 33.5603 7.48294 33.925ZM13.6135 33.6532C13.138 34.6544 12.8952 34.9753 12.4323 35.2146C11.1666 35.8693 9.53263 35.3225 9.10735 34.102L8.89869 33.5037H11.2916C12.6077 33.5037 13.6525 33.5709 13.6135 33.6532Z" fill="black"/>
</svg>
