<svg width="63" height="32" viewBox="0 0 63 32" fill="none" xmlns="http://www.w3.org/2000/svg">
<path fill-rule="evenodd" clip-rule="evenodd" d="M18.7288 0.316882C12.5721 0.73424 6.91832 2.32156 6.72467 3.68686C6.68022 3.99946 5.81206 5.0801 4.56634 6.37345C1.84419 9.19972 1.61351 9.84629 1.61351 14.6476C1.61351 17.5681 1.5625 18.05 1.16757 18.8661C0.805666 19.6134 0.736459 20.083 0.800587 21.3535C0.867677 22.6811 0.976673 23.0576 1.51763 23.8272C1.86853 24.3264 2.62113 25.0229 3.18982 25.3749C4.12125 25.9512 4.42793 26.0221 6.27387 26.0867L8.32384 26.1584L8.79516 27.2956C9.34945 28.6331 10.5457 29.9379 11.8166 30.5915C13.1685 31.2869 15.5379 31.3779 17.085 30.794C18.6084 30.2192 20.0454 28.816 20.6808 27.2831L21.1625 26.1207H31.5998C40.837 26.1207 42.0372 26.158 42.0372 26.4452C42.0372 27.125 43.1149 28.8533 44.0546 29.6803C47.3153 32.5506 52.8286 31.1741 54.2646 27.1311L54.6233 26.1207H58.1825H61.7415L62.0264 25.4329C62.9064 23.3086 63.0044 18.3469 62.202 16.5596C61.2655 14.4743 58.857 12.4994 55.8244 11.3307C54.9347 10.9877 52.6561 10.3235 50.7613 9.85475L47.3158 9.00247L44.9411 7.32118C36.4856 1.33552 29.8512 -0.4372 18.7288 0.316882ZM30.7073 2.40812C35.61 3.47585 39.3189 5.31651 46.0192 10.0071C46.5409 10.3724 47.4482 10.7477 48.1357 10.8823C50.1526 11.2774 54.7146 12.5464 55.7245 12.9932L56.6771 13.4146L56.2356 13.9761C55.6612 14.706 55.646 15.974 56.2052 16.4802C56.4314 16.6849 56.675 17.1183 56.7463 17.4434C56.976 18.4887 57.5624 18.8081 59.4659 18.9249L61.1908 19.0307L61.1661 20.618C61.1525 21.4911 61.0266 22.7529 60.8865 23.4223L60.6317 24.6392H57.6987H54.7658L54.5296 23.5017C53.5433 18.7511 47.6193 16.9014 43.8869 20.1787C43.0529 20.9109 42.1777 22.5664 41.9485 23.8456L41.8063 24.6392H31.4455H21.0846V24.1478C21.0846 22.1952 19.1616 19.7708 16.951 18.9365C13.2322 17.5329 9.06903 19.8276 8.42225 23.6375L8.27029 24.5334L7.06626 24.5967C4.80846 24.7152 3.36484 24.0083 2.64971 22.4337C2.17499 21.3882 2.14621 20.5829 2.55553 19.7916C2.82198 19.276 3.02072 19.1816 4.06538 19.0737C5.77524 18.8974 6.40572 18.2574 6.59303 16.5088C6.86181 13.9985 5.89334 12.364 4.13692 12.364C3.38114 12.364 3.30664 12.314 3.30664 11.8065C3.30664 10.3786 3.80633 9.5466 6.10371 7.14975C7.40192 5.79524 8.38606 4.59184 8.38606 4.3584C8.38606 4.0293 8.73209 3.84073 10.1321 3.4058C14.2439 2.12896 17.1988 1.79499 23.6243 1.88176C27.7642 1.93764 28.9516 2.02589 30.7073 2.40812ZM16.5343 3.91903C14.2081 4.16115 12.0037 4.67227 11.2128 5.15333C10.2288 5.75164 9.50205 6.83081 9.1357 8.23675C8.72109 9.82914 8.72299 10.7424 9.1431 11.6279C9.76406 12.9365 10.1366 12.9989 17.3176 12.9989C22.0393 12.9989 23.8188 12.9314 24.0053 12.7449C24.1852 12.565 24.2592 11.3083 24.2592 8.43908C24.2592 3.36411 24.484 3.67586 20.8562 3.7148C19.4105 3.73025 17.4655 3.82231 16.5343 3.91903ZM25.8825 3.95163C25.5572 4.18951 25.5259 4.66296 25.5776 8.55485L25.6349 12.8931L33.0424 12.9492C38.1 12.9875 40.6298 12.931 41.0171 12.771C41.6283 12.5183 42.2493 11.4427 42.248 10.6389C42.2469 9.89962 41.5324 8.86363 40.5098 8.11802C39.1047 7.09367 35.1429 5.23989 33.1245 4.66232C30.007 3.77004 26.5894 3.4348 25.8825 3.95163ZM22.5661 8.4486V11.5174H16.9436C13.4727 11.5174 11.1645 11.4336 10.9118 11.2984C10.1167 10.8728 10.5006 8.12754 11.5116 7.01028C12.0291 6.43842 13.0041 6.08287 14.7705 5.82191C15.6242 5.69598 16.5607 5.55778 16.8518 5.51503C17.1428 5.47249 18.5474 5.42445 19.9735 5.40857L22.5661 5.37979V8.4486ZM30.4311 5.67715C32.6276 6.09747 34.4126 6.72181 36.852 7.92288C39.5476 9.2503 40.6025 10.0945 40.5144 10.8546L40.4499 11.4116L33.7302 11.4675L27.0106 11.5233V8.45157V5.37979H27.9444C28.458 5.37979 29.577 5.51355 30.4311 5.67715ZM4.90243 14.5445C4.96973 14.8127 4.99534 15.5509 4.95936 16.1848L4.89396 17.3376L4.1003 17.4032L3.30664 17.469V15.763V14.0571H4.04337C4.63597 14.0571 4.80401 14.1526 4.90243 14.5445ZM59.6843 15.7672C60.9032 17.123 60.9316 17.4434 59.8325 17.4434C58.725 17.4434 58.3336 17.2692 58.3336 16.7763C58.3336 16.5505 58.096 16.1283 57.8054 15.8377C57.3048 15.3371 57.2949 15.2823 57.6153 14.7932C58.0418 14.1424 58.3569 14.2908 59.6843 15.7672ZM10.4295 15.2908C9.99729 15.7683 9.99581 15.8483 10.4117 16.2643C10.6538 16.5062 11.1681 16.5968 12.3014 16.5968C13.4348 16.5968 13.9491 16.5062 14.1912 16.2643C14.6088 15.8466 14.6088 15.654 14.1912 15.2362C13.6835 14.7287 10.9016 14.7689 10.4295 15.2908ZM26.1111 15.1323C25.6834 15.3814 25.6262 15.9744 25.9947 16.3429C26.1477 16.4959 26.8883 16.5968 27.8572 16.5968C28.8261 16.5968 29.5666 16.4959 29.7196 16.3429C30.101 15.9615 30.0256 15.3697 29.5643 15.1227C29.0407 14.8425 26.597 14.8493 26.1111 15.1323ZM16.594 20.5234C19.6107 21.7835 20.408 25.664 18.1504 28.0979C16.9413 29.4012 14.7853 29.9055 12.9757 29.3083C11.8566 28.939 10.3945 27.2236 10.0794 25.9099C9.38544 23.0168 11.6494 20.2121 14.6892 20.1994C15.304 20.1969 16.1612 20.3427 16.594 20.5234ZM50.9657 20.9484C52.1076 21.7499 52.8261 23.025 52.9808 24.5241C53.2875 27.496 50.4553 30.0505 47.4713 29.493C46.1435 29.245 45.3706 28.8156 44.6258 27.9123C42.6088 25.4653 43.557 21.65 46.488 20.4193C46.7754 20.2987 47.6952 20.2242 48.5319 20.2536C49.8347 20.2997 50.1839 20.3994 50.9657 20.9484ZM13.4697 22.2473C11.9243 23.0475 11.3397 24.8795 12.1863 26.268C13.7046 28.758 17.3883 27.9834 17.6346 25.1224C17.831 22.8424 15.4689 21.2117 13.4697 22.2473ZM46.8853 22.3812C46.1581 22.7658 45.8624 23.0919 45.543 23.8627C45.1375 24.8411 45.1375 24.8606 45.5485 25.8526C46.2584 27.5654 48.0849 28.2615 49.6597 27.4196C51.752 26.3006 51.6836 23.3438 49.5412 22.3067C48.4286 21.7681 48.0233 21.7793 46.8853 22.3812ZM15.6181 23.9313C16.4213 24.6581 15.856 26.1207 14.7722 26.1207C13.6401 26.1207 13.0564 24.8071 13.8157 23.9681C14.2519 23.4862 15.107 23.4686 15.6181 23.9313ZM49.011 23.7872C50.0457 24.3408 49.5657 26.1207 48.3816 26.1207C47.7644 26.1207 46.905 25.4966 46.905 25.0486C46.905 24.7305 47.3471 23.9281 47.6245 23.7429C47.9511 23.5249 48.557 23.5442 49.011 23.7872Z" fill="black"/>
</svg>
