<svg width="60" height="43" viewBox="0 0 60 43" fill="none" xmlns="http://www.w3.org/2000/svg">
<path fill-rule="evenodd" clip-rule="evenodd" d="M34.2334 0.956467C33.4833 1.29134 32.6171 2.19998 32.3344 2.94842C32.2167 3.25995 32.1203 4.17503 32.1203 4.98163V6.44832L29.7077 6.55941C26.9707 6.68559 25.9317 7.04583 24.8929 8.22896C23.9575 9.29437 23.6679 10.6013 23.6679 13.7588V16.5095L21.5044 16.6292C16.8989 16.884 14.1515 17.752 10.4449 20.1231C6.40704 22.7061 6.55697 22.6393 4.43521 22.7997C2.70106 22.9309 2.47043 22.9975 1.90794 23.5304C1.56743 23.8528 1.1921 24.3431 1.07397 24.6198C0.877151 25.081 0.51732 31.2235 0.45131 35.2521C0.412872 37.586 0.2239 37.4996 5.37685 37.4996H9.54852L9.68979 38.1537C10.0337 39.7472 11.3048 41.2793 13.0017 42.1455C14.3853 42.8516 16.5457 42.8182 18.076 42.0668C19.5316 41.3519 20.7403 39.9973 21.1869 38.5805L21.5276 37.4996H29.5151H37.5024L37.6272 38.2795C37.8015 39.3698 38.8874 40.904 40.0208 41.6614C42.6958 43.4491 46.2893 42.823 48.2513 40.2271C48.6598 39.6866 49.0929 38.8518 49.2136 38.3721L49.4334 37.4996H53.8711C56.5453 37.4996 58.4636 37.4169 58.6982 37.2914C59.0422 37.1072 59.0875 36.8548 59.0875 35.1199C59.0875 28.8828 56.0172 25.9353 48.3467 24.8094C46.8935 24.596 45.4177 24.3386 45.0671 24.2376C44.7166 24.1364 43.177 23.2668 41.6459 22.305C35.8395 18.6578 30.2706 16.5699 26.3487 16.5699H25.2501L25.3143 13.364C25.3716 10.498 25.4225 10.0992 25.7934 9.60288C26.7117 8.37466 27.1201 8.22373 29.7192 8.15088L32.1203 8.08386L32.1247 9.66024C32.1299 11.4962 32.5298 12.5789 33.5067 13.4008C34.4894 14.2278 35.3171 14.3537 39.7731 14.3549C44.6097 14.3564 44.7405 14.3159 44.8383 12.7927L44.8995 11.8406L47.8176 11.7355C49.4225 11.678 50.8975 11.5536 51.0953 11.4596C51.6491 11.1964 52.0885 10.1875 51.9412 9.51694C51.8707 9.19595 51.5411 8.7045 51.2086 8.42477C50.6234 7.93232 50.5123 7.91622 47.7015 7.91622H44.7989V7.31248V6.70873H47.8331H50.8673L51.4555 6.12049C51.9023 5.67372 52.0438 5.34548 52.0438 4.75643C52.0438 3.06313 51.1933 2.68659 47.3648 2.68498L44.7989 2.68378V1.9937C44.7989 0.695447 44.6976 0.670496 39.5018 0.67915C36.0536 0.684986 34.6797 0.757433 34.2334 0.956467ZM43.3432 7.46341L43.3968 12.7462L39.2177 12.7452C35.1887 12.7442 35.018 12.7279 34.4747 12.2924C33.7089 11.6783 33.5393 10.7802 33.5348 7.31248C33.5306 3.83934 33.7117 3.01403 34.5978 2.47046C35.1869 2.10922 35.5701 2.08124 39.2646 2.12874L43.2895 2.18066L43.3432 7.46341ZM50.5399 4.50386C50.6113 4.61938 50.5602 4.84578 50.4266 5.00698C50.2358 5.23681 49.6027 5.3 47.4912 5.3H44.7989V4.79688V4.29376H47.6045C49.3362 4.29376 50.4598 4.37406 50.5399 4.50386ZM50.2253 9.61797C50.7129 10.2058 50.2344 10.3312 47.5038 10.3312H44.7989V9.82807V9.32496H47.3905C49.4139 9.32496 50.0353 9.38915 50.2253 9.61797ZM29.3028 18.4896C32.9649 19.3403 37.0989 21.1954 41.1044 23.7854C43.7313 25.4839 44.8667 25.8985 48.0716 26.329C50.1034 26.6019 53.05 27.3077 53.05 27.5214C53.05 27.5588 52.9142 27.9144 52.7482 28.3119C52.3394 29.2901 52.3684 29.9667 52.8631 30.9887C53.4638 32.2294 54.4286 32.7687 56.0611 32.7764C57.5495 32.7834 57.6216 32.8762 57.6586 34.8331L57.6787 35.8897H53.5469C50.4139 35.8897 49.3976 35.8289 49.3428 35.6381C48.7089 33.4274 47.7347 32.1491 46.0587 31.3292C43.8526 30.2499 41.1013 30.6967 39.2907 32.428C38.5099 33.175 37.5596 34.878 37.556 35.5375C37.5542 35.8669 37.038 35.8897 29.5513 35.8897H21.5485L21.2044 34.9205C20.4833 32.8903 19.0555 31.5109 17.0804 30.9367C14.3591 30.1456 11.305 31.5564 10.0615 34.1791C9.79907 34.7325 9.58353 35.3439 9.58252 35.5375C9.58071 35.8605 9.26355 35.8897 5.75681 35.8897H1.9331V34.4677C1.9331 32.5761 2.11523 32.2672 3.23034 32.2672C3.96671 32.2672 4.19653 32.1658 4.63203 31.648C5.10295 31.0885 5.15306 30.8645 5.15306 29.3238C5.15306 26.8349 4.63384 26.0285 3.03131 26.0285C2.32714 26.0285 2.29816 26.0022 2.42294 25.4751C2.64692 24.5294 3.2237 24.2173 4.74755 24.2173C6.56884 24.2173 7.3372 23.9122 10.2372 22.0376C15.4002 18.7001 17.085 18.2259 23.8691 18.201C26.8824 18.1899 28.3473 18.2678 29.3028 18.4896ZM17.5743 19.904C15.6556 20.3688 14.2126 21.1841 12.7969 22.6033C11.2686 24.1354 10.2495 26.002 10.592 26.6419C10.7936 27.0189 11.0603 27.0348 17.2134 27.0348C22.8741 27.0348 23.6391 26.9975 23.7469 26.7164C23.9864 26.0925 23.8822 20.0847 23.6276 19.8301C23.2907 19.4932 19.0561 19.5449 17.5743 19.904ZM25.2189 19.7226C25.047 20.0005 24.9884 26.5282 25.1555 26.7983C25.2633 26.9728 27.3281 27.0348 33.0307 27.0348C40.7053 27.0348 40.7614 27.0317 40.9886 26.6071C41.2996 26.0261 40.8492 25.4433 38.9454 23.9627C37.1128 22.5377 34.0303 20.9867 31.6171 20.2752C29.7258 19.7176 25.4501 19.3483 25.2189 19.7226ZM22.2591 23.3117V25.626H17.3233H12.3877L12.6789 25.0726C13.0474 24.3725 14.695 22.7955 15.6179 22.26C16.9434 21.4906 18.7967 21.0724 21.1019 21.0225L22.2591 20.9973V23.3117ZM30.6234 21.6017C32.4191 22.0547 36.6821 24.0907 37.7552 25.0078L38.4596 25.6097L32.4724 25.6178L26.4853 25.626V23.4123V21.1986H27.7556C28.4541 21.1986 29.7447 21.3799 30.6234 21.6017ZM3.65437 28.7611C3.82905 30.1585 3.55817 30.8585 2.84294 30.8585C2.34284 30.8585 2.33559 30.8353 2.33559 29.2485V27.6385H2.92485C3.48914 27.6385 3.52014 27.686 3.65437 28.7611ZM55.4948 29.1982C56.265 30.011 56.8737 30.8524 56.8737 31.1046C56.8737 31.1905 56.4276 31.261 55.8822 31.261C55.0504 31.261 54.8232 31.1754 54.4735 30.7307C54.0178 30.1515 53.9395 29.4401 54.2646 28.8327C54.5515 28.2968 54.6755 28.3336 55.4948 29.1982ZM17.3398 32.6468C17.7888 32.8506 18.4865 33.4036 18.8906 33.8756C21.3706 36.7729 19.2545 41.1153 15.3599 41.1209C12.2764 41.1255 10.0768 37.4564 11.4974 34.678C12.5294 32.66 15.2706 31.7069 17.3398 32.6468ZM45.302 32.7438C46.5059 33.3093 46.8584 33.6787 47.4322 34.9758C48.6338 37.6922 46.8152 40.8379 43.9037 41.0792C41.9911 41.2378 40.3354 40.3944 39.5218 38.8464C38.9685 37.7943 38.9077 35.7011 39.4036 34.7786C40.5946 32.5624 43.0861 31.7029 45.302 32.7438ZM14.501 34.1603C12.7614 34.918 12.2227 37.0289 13.4207 38.3934C14.5962 39.7321 16.4499 39.719 17.6401 38.3636C18.8264 37.0124 18.2452 34.8854 16.4891 34.1517C15.6819 33.8144 15.2911 33.8162 14.501 34.1603ZM42.4745 34.1507C40.7278 34.9388 40.1967 37.0295 41.396 38.3954C42.2823 39.4049 43.3195 39.6512 44.494 39.1318C46.0673 38.4356 46.6604 36.7353 45.814 35.3471C45.0732 34.1322 43.6475 33.6214 42.4745 34.1507ZM16.309 35.7544C17.0645 36.3068 16.5024 37.9021 15.5523 37.9021C14.9746 37.9021 14.4105 37.3227 14.4105 36.7297C14.4105 35.7019 15.4833 35.1507 16.309 35.7544ZM44.2295 35.8202C44.6878 36.235 44.7045 37.048 44.2646 37.5341C43.5205 38.3564 42.0194 37.5952 42.2768 36.5262C42.5159 35.5337 43.5141 35.1726 44.2295 35.8202Z" fill="black"/>
</svg>
