<svg width="63" height="47" viewBox="0 0 63 47" fill="none" xmlns="http://www.w3.org/2000/svg">
<path fill-rule="evenodd" clip-rule="evenodd" d="M28.9746 2.588C27.0607 3.73208 25.2848 4.76525 25.0278 4.88418C24.2329 5.25205 24.2479 5.91015 25.0856 7.40793C25.7213 8.54483 25.8012 8.81349 25.5684 9.02978C25.415 9.17212 20.6218 11.8588 14.9168 14.9997C-0.0614461 23.2466 0.857722 22.7029 0.782134 23.36C0.732838 23.7872 1.31721 24.8705 3.21942 27.8782C6.38403 32.8823 6.71698 33.3751 6.93409 33.3751C7.03165 33.3751 7.11156 34.4167 7.11156 35.6897V38.0044L8.18087 39.2843C9.13578 40.4271 9.3309 40.5641 10.004 40.5641H10.7578L10.8494 41.6425C10.963 42.9804 11.4979 44.1288 12.452 45.0829C13.4895 46.1204 14.5881 46.59 16.2098 46.6885C17.4566 46.7645 17.7468 46.704 18.9319 46.1204C20.9192 45.1421 22.3112 43.0071 22.3112 40.9375C22.3112 40.4129 22.3786 40.3587 23.0301 40.3587C23.7073 40.3587 23.749 40.3984 23.749 41.0402C23.749 43.094 25.2149 45.3483 27.1303 46.2402C28.5502 46.9015 30.4488 46.9026 31.8623 46.2428C33.7567 45.3588 35.2383 43.2103 35.2469 41.3344L35.2514 40.3587H40.5919H45.9323V41.054C45.9323 42.9314 47.1842 45.0063 48.9361 46.0329C50.1514 46.7452 52.046 46.9116 53.4875 46.4328C55.5894 45.7347 57.3232 43.5052 57.4924 41.283L57.5707 40.256L59.9638 40.1981C62.1191 40.1461 62.3787 40.0993 62.5782 39.7269C62.7277 39.4474 62.778 37.0058 62.7338 32.185C62.6706 25.3102 62.6517 25.0171 62.2021 23.9546C61.1362 21.4366 59.5536 19.9741 57.0537 19.1973C55.8934 18.8368 55.148 18.7916 50.3519 18.7916C46.1026 18.7916 44.9071 18.85 44.728 19.0659C44.5752 19.2501 44.4828 21.4228 44.4462 25.69L44.3918 32.04L40.5884 32.0957L36.7848 32.1513L35.4702 27.4879L34.1556 22.8247L34.6521 22.5133C35.7927 21.7985 37.0331 20.3018 37.2722 19.352C37.8434 17.0837 37.6696 16.5795 33.8321 9.37074C32.908 7.6349 32.1793 6.14596 32.2125 6.06195C32.2458 5.97794 32.8509 5.43074 33.5569 4.84597C34.6847 3.9114 34.8406 3.69511 34.8406 3.06309C34.8406 2.51056 34.6619 2.15872 34.0704 1.54581C33.6469 1.10707 33.1097 0.694005 32.8772 0.628072C32.5751 0.54242 31.4602 1.10234 28.9746 2.588ZM33.0744 2.54241C33.4117 2.91521 33.3638 2.98135 31.8738 4.19896C30.3498 5.4441 30.0004 6.05537 30.5118 6.58058C30.7836 6.85951 35.3336 15.5143 35.7321 16.5099C35.9962 17.1702 36.0242 17.5553 35.8678 18.3802C35.5121 20.2551 35.416 20.3402 30.5272 23.0964C28.6632 24.1473 24.3067 26.6127 20.8461 28.5749L14.554 32.1427H11.1908H7.82759L5.26151 28.1101C3.8502 25.8921 2.66751 23.9612 2.63341 23.819C2.5987 23.6748 3.36895 23.1277 4.37932 22.5788C6.22936 21.574 19.6907 14.1531 24.2132 11.6449C25.596 10.878 26.9814 10.1408 27.2922 10.0067C27.6029 9.87253 27.857 9.63509 27.857 9.47878C27.857 9.32247 27.4865 8.52038 27.0334 7.69632C26.5805 6.87204 26.2457 6.16197 26.2896 6.11801C26.4482 5.95944 32.4816 2.1848 32.6007 2.16981C32.6679 2.16118 32.8811 2.329 33.0744 2.54241ZM26.7242 12.0235C26.6269 12.33 27.1617 13.4502 28.6942 16.1492C29.8515 18.1867 30.9538 20.0462 31.144 20.2814C31.5323 20.7608 32.0275 20.6748 32.3502 20.0721C32.5182 19.7581 32.177 19.0231 30.5209 16.1309C29.4012 14.1757 28.3418 12.3569 28.1663 12.0892C27.7623 11.4724 26.9114 11.4336 26.7242 12.0235ZM21.8665 14.8334C21.6784 14.8769 21.4689 15.0575 21.4009 15.2349C21.2731 15.5677 25.3848 23.4943 25.9123 23.932C26.3631 24.3065 26.9261 24.0824 26.9939 23.5015C27.0596 22.9387 22.9584 15.1259 22.4702 14.8839C22.3264 14.8126 22.0547 14.7898 21.8665 14.8334ZM15.5301 18.1808C15.3401 18.5357 15.6651 19.2255 17.731 22.8537C20.0354 26.9011 20.1847 27.1104 20.7678 27.1104C21.1883 27.1104 21.4029 26.9976 21.4504 26.7515C21.5108 26.4381 17.9756 19.8661 16.92 18.3295C16.4622 17.6632 15.8425 17.5968 15.5301 18.1808ZM55.6274 20.4603C58.6456 21.1008 60.555 23.0558 61.1136 26.078C61.2367 26.7437 61.3373 28.7043 61.3373 30.4346V33.5805H60.0947C57.6972 33.5805 56.6614 34.7622 57.551 36.4824C57.946 37.2463 59.265 37.8832 60.4644 37.8894C61.1989 37.8933 61.3373 37.959 61.3373 38.3047C61.3373 38.6892 61.203 38.7151 59.232 38.7079L57.1266 38.7005L56.5293 37.7585C54.3572 34.3335 49.0482 34.4222 46.8397 37.9206C46.5637 38.3579 46.2467 38.7155 46.135 38.7155C45.906 38.7155 45.8411 20.5947 46.0693 20.3665C46.3012 20.1346 54.4702 20.2149 55.6274 20.4603ZM9.99025 21.1499C9.63716 21.5754 9.69837 21.7026 12.4928 26.3383C14.5881 29.8145 14.8089 30.1057 15.304 30.0482C16.3416 29.9279 16.089 29.2079 13.5164 24.9537C11.0433 20.8643 10.6128 20.3997 9.99025 21.1499ZM49.1445 22.305C48.6575 23.0003 48.6432 30.3785 49.1277 31.0699C49.4432 31.5205 49.5134 31.5265 54.4429 31.5265C58.5983 31.5265 59.4807 31.4756 59.6902 31.2231C59.8693 31.0074 59.9188 30.1914 59.8615 28.3989C59.7896 26.1493 59.7214 25.7632 59.227 24.8124C58.9224 24.2263 58.3664 23.5128 57.9916 23.2269C56.6404 22.1964 55.8913 22.0148 52.585 21.9166C49.5151 21.8252 49.4777 21.8295 49.1445 22.305ZM56.2085 23.978C57.7412 24.7524 58.4584 26.2241 58.4605 28.5995L58.4617 29.8833H54.4564H50.4511V26.6996V23.5159H52.8724C54.9755 23.5159 55.414 23.5767 56.2085 23.978ZM33.9517 27.7391C34.5512 29.8786 35.0428 31.7448 35.0438 31.8859C35.0456 32.0872 33.1972 32.1427 26.4808 32.1427C21.3573 32.1427 17.9941 32.0679 18.1108 31.9566C18.2182 31.8543 20.0159 30.8018 22.1058 29.6177C24.1958 28.4336 27.3846 26.6238 29.1921 25.596C30.9996 24.5681 32.5648 23.7545 32.67 23.788C32.7753 23.8215 33.3521 25.5994 33.9517 27.7391ZM44.4495 36.0967L44.3918 38.6128L39.6353 38.6679L34.8788 38.7229L34.4633 38.0517C33.5214 36.5298 31.8632 35.5193 29.9328 35.2907C27.9716 35.0583 25.6672 36.2224 24.5684 38.0001C24.1549 38.6693 24.0571 38.7155 23.0529 38.7155C22.0193 38.7155 21.9561 38.6822 21.3489 37.8208C20.1319 36.0944 18.5487 35.2418 16.56 35.2418C14.5497 35.2418 12.8194 36.1523 11.7331 37.7822C11.1951 38.589 11.0232 38.7071 10.3795 38.711C9.77354 38.7147 9.55356 38.5917 9.14707 38.0213C8.69581 37.3884 8.65781 37.1612 8.71799 35.4537L8.78393 33.5805H26.6456H44.5072L44.4495 36.0967ZM61.2995 35.7886C61.2389 36.3154 61.1746 36.3507 60.3442 36.3127C59.4057 36.27 58.8725 35.9779 58.8725 35.5067C58.8725 35.2974 59.197 35.2237 60.1185 35.2237C61.3566 35.2237 61.3642 35.2272 61.2995 35.7886ZM18.3909 37.2687C21.3257 38.7658 21.3898 42.9804 18.5027 44.6156C17.3288 45.2805 15.5605 45.2586 14.3753 44.5639C13.1105 43.8226 12.383 42.506 12.3973 40.984C12.4134 39.2701 13.3381 37.8052 14.8141 37.1545C15.7439 36.7447 17.472 36.7999 18.3909 37.2687ZM31.8104 37.6076C33.9808 39.1331 34.2444 41.9374 32.4038 43.9202C31.3215 45.086 29.9264 45.4537 28.3555 44.9872C25.4625 44.128 24.4311 40.3554 26.4804 38.1264C27.7687 36.725 30.2156 36.4867 31.8104 37.6076ZM53.6862 37.3026C55.9996 38.4224 56.5965 41.7041 54.8403 43.648C53.9265 44.6594 52.9983 45.0829 51.6956 45.0829C49.1554 45.0829 47.3479 43.0295 47.6492 40.4859C47.9842 37.6565 51.0634 36.033 53.6862 37.3026ZM15.1012 38.979C14.6625 39.2738 14.2957 39.7569 14.1133 40.2798C13.8499 41.0357 13.8592 41.1844 14.216 41.9031C14.9685 43.4194 16.3178 43.8941 17.7581 43.1493C18.5405 42.7449 19.0248 41.8688 19.0248 40.8583C19.0248 40.257 18.8638 39.944 18.2274 39.3075C17.5689 38.6492 17.2879 38.5101 16.6146 38.5101C16.1063 38.5101 15.5363 38.6868 15.1012 38.979ZM28.1789 38.9098C25.8498 40.4452 27.4329 44.1623 30.109 43.4418C32.285 42.8558 32.6798 39.8251 30.7123 38.8077C29.9172 38.3965 28.8953 38.4378 28.1789 38.9098ZM50.1565 39.1419C48.3466 40.7311 49.4007 43.4368 51.8304 43.4389C53.5122 43.4405 54.7692 41.6521 54.1452 40.1457C53.4467 38.4592 51.4937 37.9678 50.1565 39.1419ZM17.1762 40.3587C17.6969 40.8794 17.6952 41.2241 17.17 41.6994C16.8401 41.998 16.6362 42.036 16.1944 41.8816C15.4412 41.6182 15.322 40.7352 15.9777 40.2759C16.5778 39.8557 16.6801 39.8627 17.1762 40.3587ZM30.3389 40.596C30.6375 41.154 30.382 41.7735 29.7919 41.9216C29.1319 42.0874 28.6786 41.6889 28.6786 40.9431C28.6786 39.9687 29.8699 39.7195 30.3389 40.596ZM52.6156 40.5769C52.8432 40.9449 52.5248 41.7626 52.1015 41.897C51.0574 42.2283 50.4067 40.9061 51.3045 40.2774C51.7523 39.9637 52.3163 40.0925 52.6156 40.5769Z" fill="black"/>
</svg>
